<svg width="8" height="14" viewBox="0 0 8 14" fill="none" xmlns="http://www.w3.org/2000/svg">
<path fill-rule="evenodd" clip-rule="evenodd" d="M0.146894 0.245552C0.193339 0.198362 0.248515 0.160922 0.30926 0.135377C0.370005 0.109831 0.435126 0.0966816 0.500894 0.0966816C0.566661 0.0966816 0.631782 0.109831 0.692527 0.135377C0.753272 0.160922 0.808448 0.198362 0.854894 0.245552L6.85489 6.32626C6.90146 6.37334 6.9384 6.42925 6.96361 6.49082C6.98881 6.55238 7.00179 6.61838 7.00179 6.68503C7.00179 6.75168 6.98881 6.81768 6.96361 6.87924C6.9384 6.9408 6.90146 6.99672 6.85489 7.04379L0.854894 13.1245C0.761007 13.2197 0.633669 13.2731 0.500894 13.2731C0.368118 13.2731 0.24078 13.2197 0.146894 13.1245C0.0530069 13.0294 0.000261784 12.9003 0.000261784 12.7657C0.000261784 12.6312 0.0530069 12.5021 0.146894 12.407L5.79389 6.68503L0.146894 0.963076C0.10033 0.916005 0.0633873 0.860088 0.0381808 0.798525C0.0129744 0.736963 0 0.670966 0 0.604314C0 0.537662 0.0129744 0.471664 0.0381808 0.410102C0.0633873 0.34854 0.10033 0.292622 0.146894 0.245552Z" fill="white"/>
</svg>
