<svg width="31" height="30" viewBox="0 0 31 30" fill="none" xmlns="http://www.w3.org/2000/svg">
<path d="M25.5003 5.40604C23.571 4.52059 21.5351 3.88864 19.4435 3.52595C19.4245 3.52276 19.4051 3.52551 19.3877 3.53384C19.3704 3.54217 19.3561 3.55565 19.3468 3.57244C19.0846 4.03735 18.7945 4.64545 18.5918 5.12151C16.3372 4.77936 14.0438 4.77936 11.7892 5.12151C11.5631 4.59118 11.3073 4.074 11.0231 3.57244C11.0135 3.55583 10.9992 3.5425 10.9819 3.53421C10.9647 3.52591 10.9453 3.52303 10.9264 3.52595C8.8344 3.88717 6.79835 4.51917 4.86955 5.40604C4.85305 5.41233 4.83924 5.42417 4.8305 5.43951C0.973622 11.2025 -0.0845081 16.8242 0.434329 22.3752C0.436189 22.4012 0.452925 22.4272 0.473381 22.444C2.71932 24.1076 5.23143 25.3778 7.90261 26.2004C7.92147 26.2064 7.94173 26.2062 7.96046 26.1998C7.97919 26.1935 7.9954 26.1813 8.00675 26.1651C8.57951 25.3841 9.08905 24.5602 9.52793 23.6937C9.53398 23.6818 9.53744 23.6688 9.53806 23.6556C9.53867 23.6423 9.53644 23.6291 9.53151 23.6167C9.52657 23.6044 9.51905 23.5932 9.50945 23.5841C9.49985 23.5749 9.4884 23.5679 9.47586 23.5635C8.67466 23.2555 7.8987 22.8856 7.15504 22.457C7.14145 22.4491 7.13003 22.438 7.12179 22.4247C7.11355 22.4113 7.10876 22.3961 7.10784 22.3805C7.10692 22.3648 7.1099 22.3491 7.11651 22.3349C7.12313 22.3207 7.13317 22.3083 7.14574 22.2989C7.30195 22.1818 7.45816 22.059 7.60693 21.9363C7.62007 21.9257 7.63584 21.9189 7.65254 21.9166C7.66925 21.9144 7.68626 21.9166 7.70177 21.9233C12.5721 24.1474 17.8442 24.1474 22.6551 21.9233C22.6711 21.9161 22.6888 21.9135 22.7062 21.9158C22.7236 21.9181 22.74 21.9252 22.7536 21.9363C22.9024 22.059 23.0586 22.1818 23.2148 22.2989C23.2275 22.3082 23.2376 22.3204 23.2444 22.3346C23.2512 22.3487 23.2543 22.3643 23.2536 22.38C23.2529 22.3956 23.2482 22.4109 23.2402 22.4243C23.2321 22.4377 23.2208 22.449 23.2074 22.457C22.4654 22.8895 21.6884 23.259 20.8847 23.5616C20.8723 23.5664 20.861 23.5738 20.8516 23.5832C20.8422 23.5926 20.8348 23.604 20.8301 23.6164C20.8254 23.6289 20.8233 23.6422 20.8241 23.6555C20.8248 23.6688 20.8284 23.6818 20.8345 23.6937C21.2808 24.5584 21.7922 25.3841 22.3538 26.1651C22.3651 26.1813 22.3814 26.1935 22.4001 26.1998C22.4188 26.2062 22.4391 26.2064 22.4579 26.2004C25.1336 25.3804 27.6498 24.11 29.8983 22.444C29.9095 22.4361 29.9188 22.4258 29.9255 22.4139C29.9323 22.402 29.9363 22.3888 29.9374 22.3752C30.5585 15.9576 28.8978 10.3824 25.5375 5.44137C25.5341 5.43321 25.529 5.42585 25.5226 5.41976C25.5162 5.41368 25.5086 5.409 25.5003 5.40604V5.40604ZM10.255 18.9944C8.78779 18.9944 7.58089 17.648 7.58089 15.9966C7.58089 14.3434 8.76548 12.9971 10.255 12.9971C11.7558 12.9971 12.9515 14.3546 12.9292 15.9966C12.9292 17.648 11.7446 18.9944 10.255 18.9944ZM20.1408 18.9944C18.6755 18.9944 17.4667 17.648 17.4667 15.9966C17.4667 14.3434 18.6513 12.9971 20.1408 12.9971C21.6416 12.9971 22.8392 14.3546 22.815 15.9966C22.815 17.648 21.6416 18.9944 20.1408 18.9944Z" fill="#D9D9D9"/>
</svg>
