<svg width="30" height="30" viewBox="0 0 30 30" fill="none" xmlns="http://www.w3.org/2000/svg">
<path d="M14.877 0C6.65748 0 0 6.65748 0 14.877C0 21.4601 4.25855 27.0204 10.1722 28.9917C10.916 29.1218 11.195 28.6755 11.195 28.285C11.195 27.9317 11.1764 26.7601 11.1764 25.5141C7.43853 26.2022 6.47152 24.6029 6.17398 23.7661C6.00661 23.3384 5.28135 22.018 4.64908 21.6647C4.12838 21.3858 3.38453 20.6977 4.63048 20.6791C5.80205 20.6605 6.63888 21.7577 6.91783 22.204C8.25676 24.4541 10.3953 23.8219 11.2508 23.4314C11.3809 22.4643 11.7715 21.8135 12.1992 21.4415C8.88904 21.0696 5.43012 19.7865 5.43012 14.096C5.43012 12.4781 6.00661 11.1392 6.95502 10.0978C6.80625 9.72587 6.28555 8.20097 7.10379 6.15538C7.10379 6.15538 8.34974 5.76486 11.195 7.68028C12.3851 7.34554 13.6497 7.17818 14.9142 7.17818C16.1788 7.17818 17.4433 7.34554 18.6335 7.68028C21.4787 5.74626 22.7247 6.15538 22.7247 6.15538C23.5429 8.20097 23.0222 9.72587 22.8735 10.0978C23.8219 11.1392 24.3984 12.4595 24.3984 14.096C24.3984 19.8051 20.9209 21.0696 17.6107 21.4415C18.15 21.9065 18.6149 22.7991 18.6149 24.1938C18.6149 26.1836 18.5963 27.7829 18.5963 28.285C18.5963 28.6755 18.8753 29.1404 19.6191 28.9917C22.5725 27.9946 25.1388 26.0965 26.9569 23.5645C28.775 21.0326 29.7533 17.9942 29.7541 14.877C29.7541 6.65748 23.0966 0 14.877 0Z" fill="#D9D9D9"/>
</svg>
