<svg width="35" height="50" viewBox="0 0 35 50" fill="none" xmlns="http://www.w3.org/2000/svg">
<path d="M9.54546 8.33057C7.03864 8.33057 5 10.3966 5 12.9372C5 15.4777 7.03864 17.5438 9.54546 17.5438C12.0523 17.5438 14.0909 15.4777 14.0909 12.9372C14.0909 10.3966 12.0523 8.33057 9.54546 8.33057ZM9.54546 15.2405C8.29205 15.2405 7.27273 14.2074 7.27273 12.9372C7.27273 11.6669 8.29205 10.6339 9.54546 10.6339C10.7989 10.6339 11.8182 11.6669 11.8182 12.9372C11.8182 14.2074 10.7989 15.2405 9.54546 15.2405Z" fill="#3BFF1C"/>
<path d="M25.4545 8.33057C22.9477 8.33057 20.9091 10.3966 20.9091 12.9372C20.9091 15.4777 22.9477 17.5438 25.4545 17.5438C27.9613 17.5438 30 15.4777 30 12.9372C30 10.3966 27.9613 8.33057 25.4545 8.33057ZM25.4545 15.2405C24.2011 15.2405 23.1818 14.2074 23.1818 12.9372C23.1818 11.6669 24.2011 10.6339 25.4545 10.6339C26.7079 10.6339 27.7272 11.6669 27.7272 12.9372C27.7272 14.2074 26.7079 15.2405 25.4545 15.2405Z" fill="#F31010"/>
<path d="M17.5001 16.3922C14.9933 16.3922 12.9547 18.4582 12.9547 20.9988C12.9547 23.5393 14.9933 25.6054 17.5001 25.6054C20.0069 25.6054 22.0456 23.5393 22.0456 20.9988C22.0456 18.4582 20.0069 16.3922 17.5001 16.3922ZM17.5001 23.3021C16.2467 23.3021 15.2274 22.269 15.2274 20.9988C15.2274 19.7285 16.2467 18.6955 17.5001 18.6955C18.7535 18.6955 19.7728 19.7285 19.7728 20.9988C19.7728 22.269 18.7535 23.3021 17.5001 23.3021Z" fill="#EEF20F"/>
<path d="M17.5001 9.48224C20.0069 9.48224 22.0455 7.41618 22.0455 4.87564C22.0455 2.3351 20.0069 0.269043 17.5001 0.269043C14.9932 0.269043 12.9546 2.3351 12.9546 4.87564C12.9546 7.41618 14.9932 9.48224 17.5001 9.48224ZM17.5001 2.57234C18.7535 2.57234 19.7728 3.60537 19.7728 4.87564C19.7728 6.14591 18.7535 7.17894 17.5001 7.17894C16.2466 7.17894 15.2273 6.14591 15.2273 4.87564C15.2273 3.60537 16.2466 2.57234 17.5001 2.57234Z" fill="#2830F0"/>
<path d="M3.14702 29.6592L0 49.097H35L31.7963 29.6592H3.14702ZM5.84042 44.3992L7.44228 34.2852H27.5152L29.1171 44.3992H5.84042Z" fill="#A5A5A5"/>
</svg>
