<svg width="30" height="30" viewBox="0 0 30 30" fill="none" xmlns="http://www.w3.org/2000/svg">
<path d="M9.59238 29.7541C20.8201 29.7541 26.9638 18.3035 26.9638 8.3903C26.9638 8.06816 26.9638 7.74602 26.9519 7.42388C28.1425 6.3696 29.1784 5.03711 29.9999 3.52891C28.9046 4.12926 27.7258 4.52461 26.4876 4.71497C27.7496 3.79248 28.7141 2.31356 29.1784 0.556424C27.9997 1.42035 26.69 2.03534 25.2969 2.37213C24.1777 0.907851 22.5942 0 20.8439 0C17.4744 0 14.7359 3.36784 14.7359 7.51174C14.7359 8.09745 14.7955 8.66852 14.8907 9.22494C9.8186 8.91744 5.31798 5.91568 2.30566 1.37642C1.78178 2.48927 1.48412 3.77783 1.48412 5.15425C1.48412 7.76067 2.5676 10.0596 4.19878 11.4067C3.19864 11.3628 2.25803 11.026 1.43649 10.4696C1.43649 10.4989 1.43649 10.5281 1.43649 10.5721C1.43649 14.2035 3.54392 17.2492 6.33002 17.9374C5.81805 18.1131 5.28226 18.201 4.72266 18.201C4.32975 18.201 3.94874 18.157 3.57964 18.0692C4.35356 21.0563 6.61578 23.2234 9.28281 23.282C7.18728 25.3027 4.55597 26.5034 1.69843 26.5034C1.21027 26.5034 0.722106 26.4741 0.24585 26.4009C2.9367 28.5095 6.15143 29.7541 9.59238 29.7541Z" fill="#D9D9D9"/>
</svg>
