<?xml version="1.0" standalone="no"?>
<!DOCTYPE svg PUBLIC "-//W3C//DTD SVG 20010904//EN"
 "http://www.w3.org/TR/2001/REC-SVG-20010904/DTD/svg10.dtd">
<svg version="1.0" xmlns="http://www.w3.org/2000/svg"
 width="800.000000pt" height="800.000000pt" viewBox="0 0 800.000000 800.000000"
 preserveAspectRatio="xMidYMid meet">
<metadata>
Created by potrace 1.14, written by Peter Selinger 2001-2017
</metadata>
<g transform="translate(0.000000,800.000000) scale(0.100000,-0.100000)"
fill="#000000" stroke="none">
<path d="M3865 7943 c-68 -12 -184 -54 -215 -78 -8 -6 -28 -17 -43 -25 -43
-22 -160 -137 -206 -203 -41 -60 -95 -180 -106 -232 -3 -17 -8 -46 -12 -65 -9
-48 -9 -195 1 -250 42 -248 226 -471 461 -559 144 -54 303 -61 456 -21 43 12
169 73 212 103 125 88 222 219 276 373 53 152 46 367 -16 511 -9 21 -17 40
-18 43 -1 10 -60 106 -80 130 -10 14 -50 55 -87 91 -156 153 -399 224 -623
182z m243 -372 c107 -32 203 -130 237 -241 43 -137 4 -283 -102 -381 -70 -66
-143 -94 -243 -93 -78 0 -112 8 -169 39 -118 65 -193 191 -193 325 0 208 176
379 377 365 33 -2 75 -8 93 -14z"/>
<path d="M2648 6664 c-2 -2 -20 -5 -38 -8 -178 -25 -372 -146 -468 -291 -15
-22 -29 -42 -32 -45 -5 -4 -33 -62 -62 -125 -5 -11 -17 -53 -27 -93 -23 -89
-22 -276 3 -366 74 -268 311 -486 576 -532 53 -9 212 -10 256 -1 201 42 370
157 478 325 62 98 86 161 113 292 26 130 -12 337 -85 469 -51 93 -140 191
-230 253 -44 30 -192 102 -192 92 0 -2 -9 0 -19 5 -10 6 -36 13 -57 16 -50 7
-211 14 -216 9z m151 -375 c130 -26 224 -111 272 -243 28 -75 21 -194 -15
-268 -90 -187 -299 -265 -480 -180 -157 75 -240 248 -202 422 17 74 123 220
161 220 8 0 15 4 17 9 4 13 107 46 153 49 21 2 63 -2 94 -9z"/>
<path d="M5197 6664 c-1 -1 -18 -4 -37 -7 -65 -10 -105 -20 -117 -30 -7 -5
-13 -7 -13 -4 0 9 -120 -52 -164 -83 -250 -175 -366 -473 -302 -775 28 -131
104 -266 204 -363 193 -187 446 -250 717 -178 6 1 27 10 49 19 21 9 42 17 46
17 12 0 153 96 180 122 53 53 100 108 100 118 0 5 4 10 8 10 11 0 92 162 92
182 0 8 3 18 7 22 4 3 8 12 9 19 1 7 5 26 9 42 12 56 15 220 4 280 -32 186
-133 350 -283 464 -91 69 -215 124 -311 138 -32 4 -194 10 -198 7z m187 -382
c6 -5 22 -13 36 -17 33 -10 78 -42 117 -84 164 -173 111 -474 -100 -579 -62
-31 -88 -36 -177 -35 -60 0 -88 6 -132 27 -74 35 -131 86 -169 152 -38 67 -44
96 -43 201 0 72 4 89 34 148 48 95 147 174 245 198 32 7 176 -1 189 -11z"/>
<path d="M3897 5369 c-86 -13 -183 -48 -258 -91 -71 -41 -194 -153 -234 -213
-56 -82 -107 -208 -121 -295 -10 -59 -10 -192 -1 -255 22 -144 114 -315 224
-415 78 -72 202 -148 244 -149 8 -1 19 -5 25 -10 5 -5 24 -12 42 -15 17 -3 47
-9 65 -13 45 -9 172 -9 234 0 120 17 273 92 372 182 98 90 193 250 216 362 24
120 27 247 7 333 -6 25 -14 58 -18 75 -7 30 -83 183 -103 207 -55 66 -110 123
-154 156 -60 46 -163 102 -189 102 -9 0 -19 4 -22 9 -3 5 -18 11 -33 14 -16 3
-39 8 -53 11 -42 10 -192 13 -243 5z m199 -373 c21 -4 79 -33 118 -59 26 -16
76 -73 100 -111 22 -37 52 -148 51 -191 -10 -270 -290 -442 -528 -323 -118 59
-196 186 -201 328 -2 39 27 146 49 183 46 79 126 143 220 174 37 12 135 12
191 -1z"/>
<path d="M1705 3250 c-2 -3 -7 -26 -10 -50 -4 -25 -9 -56 -12 -70 -2 -14 -6
-38 -8 -55 -2 -16 -7 -41 -9 -55 -3 -13 -8 -42 -11 -65 -13 -89 -50 -318 -59
-360 -2 -11 -7 -42 -10 -70 -4 -27 -9 -59 -12 -69 -4 -10 -8 -35 -9 -55 -2
-20 -4 -36 -5 -36 -1 0 -3 -16 -6 -35 -2 -19 -8 -57 -14 -85 -5 -27 -12 -68
-15 -90 -3 -22 -7 -47 -10 -55 -2 -8 -6 -33 -9 -55 -2 -22 -16 -110 -30 -195
-14 -85 -28 -173 -31 -195 -4 -22 -20 -121 -36 -220 -16 -99 -32 -193 -35
-210 -2 -16 -6 -41 -9 -55 -3 -14 -7 -45 -10 -69 -3 -23 -7 -46 -9 -50 -2 -3
-7 -31 -10 -62 -4 -31 -9 -67 -11 -80 -5 -25 -12 -65 -20 -114 -2 -16 -7 -41
-9 -55 -3 -14 -8 -42 -11 -62 -3 -21 -7 -55 -10 -75 -3 -21 -10 -60 -15 -88
-5 -27 -12 -70 -15 -95 -3 -25 -8 -52 -11 -61 -2 -9 -7 -34 -9 -55 -2 -22 -7
-50 -10 -64 -2 -13 -7 -40 -10 -60 l-5 -35 2797 0 c2787 0 2798 0 2796 20 -5
53 -15 122 -18 135 -5 18 -15 82 -20 130 -2 19 -4 35 -5 35 -2 0 -7 22 -14 70
-4 22 -9 54 -12 70 -3 17 -7 41 -9 55 -6 36 -13 80 -35 210 -10 63 -21 133
-24 155 -4 22 -10 63 -16 90 -5 28 -12 68 -15 90 -12 89 -26 169 -30 174 -2 4
-6 33 -10 65 -3 33 -8 62 -9 65 -2 3 -7 26 -10 51 -3 25 -8 54 -10 65 -2 11
-9 56 -16 100 -7 44 -14 89 -16 100 -2 11 -6 34 -9 50 -3 17 -7 44 -10 60 -3
17 -8 46 -10 65 -3 19 -8 44 -10 56 -5 21 -15 83 -20 119 -1 11 -14 90 -28
175 -14 85 -28 171 -31 190 -3 19 -8 49 -12 65 -3 17 -7 41 -9 55 -2 14 -4 27
-5 30 -2 3 -2 8 -1 12 0 4 -4 31 -9 60 -11 53 -16 86 -25 143 -4 27 -8 52 -20
125 -2 14 -6 36 -9 50 -2 14 -10 58 -16 98 -7 39 -15 73 -18 73 -24 4 -4575 3
-4577 -1z m3895 -739 c3 -1 7 -13 8 -28 1 -16 6 -50 12 -78 5 -27 12 -70 15
-95 3 -25 8 -52 10 -60 2 -8 7 -35 10 -60 3 -25 8 -58 11 -75 3 -16 7 -43 9
-60 2 -16 6 -39 8 -50 2 -11 8 -42 11 -68 4 -27 10 -59 12 -70 2 -12 6 -42 9
-67 2 -25 5 -45 5 -45 1 0 3 -11 6 -25 2 -14 9 -56 16 -95 6 -38 12 -74 13
-80 1 -8 11 -68 20 -125 2 -8 6 -40 10 -70 4 -30 9 -64 11 -75 3 -11 7 -36 10
-55 3 -19 11 -73 19 -120 34 -211 34 -208 21 -212 -6 -2 -841 -3 -1856 -3
l-1845 1 0 39 c0 22 3 54 8 72 4 18 10 52 12 75 2 24 6 52 8 63 3 11 8 43 12
70 8 50 10 62 19 120 14 92 19 118 32 205 8 52 17 109 20 125 3 17 8 45 10 63
1 18 5 41 8 50 3 9 8 37 11 62 3 25 11 74 16 110 6 36 12 80 15 97 2 18 8 53
14 78 6 25 10 48 9 52 -1 5 0 10 1 13 1 3 3 16 5 30 3 31 14 97 20 130 3 14 7
39 9 55 7 50 17 98 20 104 3 5 3184 7 3206 2z"/>
</g>
</svg>
